<svg id="SvgjsSvg1077" width="288" height="288" xmlns="http://www.w3.org/2000/svg" version="1.1" xmlns:xlink="http://www.w3.org/1999/xlink" xmlns:svgjs="http://svgjs.com/svgjs"><defs id="SvgjsDefs1078"></defs><g id="SvgjsG1079"><svg xmlns="http://www.w3.org/2000/svg" viewBox="0 0 32 32" width="288" height="288"><path d="M32 31.292V19.46c0-6.34-3.384-9.29-7.896-9.29-3.641 0-5.273 2.003-6.182 3.409v-2.924h-6.86c.091 1.937 0 20.637 0 20.637h6.86V19.767c0-.615.044-1.232.226-1.672.495-1.233 1.624-2.509 3.518-2.509 2.483 0 3.475 1.892 3.475 4.666v11.041H32v-.001zM3.835 7.838c2.391 0 3.882-1.586 3.882-3.567C7.673 2.247 6.227.707 3.881.707S0 2.246 0 4.271c0 1.981 1.489 3.567 3.792 3.567h.043zm3.43 23.454V10.655H.406v20.637h6.859z" fill="#ffffff" class="color000 svgShape"></path></svg></g></svg>